<svg xmlns="http://www.w3.org/2000/svg" viewBox="0 0 280 180" fill="none">
  <rect x="10" y="10" width="260" height="160" rx="6" fill="#2d2d2d" stroke="#404040" stroke-width="2"/>
  <rect x="25" y="25" width="230" height="30" rx="3" fill="#1a1a1a"/>
  <circle cx="45" cy="40" r="4" fill="#4ade80"/>
  <circle cx="60" cy="40" r="4" fill="#60a5fa"/>
  <rect x="80" y="34" width="80" height="12" rx="2" fill="#333"/>
  <rect x="200" y="32" width="40" height="16" rx="2" fill="#333"/>
  <rect x="25" y="65" width="230" height="30" rx="3" fill="#1a1a1a"/>
  <circle cx="45" cy="80" r="4" fill="#4ade80"/>
  <circle cx="60" cy="80" r="4" fill="#f97316"/>
  <rect x="80" y="74" width="80" height="12" rx="2" fill="#333"/>
  <rect x="200" y="72" width="40" height="16" rx="2" fill="#333"/>
  <rect x="25" y="105" width="230" height="30" rx="3" fill="#1a1a1a"/>
  <circle cx="45" cy="120" r="4" fill="#4ade80"/>
  <circle cx="60" cy="120" r="4" fill="#60a5fa"/>
  <rect x="80" y="114" width="80" height="12" rx="2" fill="#333"/>
  <rect x="200" y="112" width="40" height="16" rx="2" fill="#333"/>
  <rect x="25" y="145" width="230" height="15" rx="2" fill="#1a1a1a"/>
</svg>
