<svg xmlns="http://www.w3.org/2000/svg" viewBox="0 0 200 280" fill="none">
  <rect x="40" y="10" width="120" height="260" rx="8" fill="#2d2d2d"/>
  <rect x="40" y="10" width="120" height="260" rx="8" stroke="#404040" stroke-width="2"/>
  <rect x="55" y="30" width="90" height="12" rx="2" fill="#1a1a1a"/>
  <circle cx="70" cy="36" r="3" fill="#4ade80"/>
  <circle cx="82" cy="36" r="3" fill="#60a5fa"/>
  <rect x="55" y="52" width="90" height="12" rx="2" fill="#1a1a1a"/>
  <circle cx="70" cy="58" r="3" fill="#4ade80"/>
  <circle cx="82" cy="58" r="3" fill="#f97316"/>
  <rect x="55" y="74" width="90" height="12" rx="2" fill="#1a1a1a"/>
  <circle cx="70" cy="80" r="3" fill="#4ade80"/>
  <circle cx="82" cy="80" r="3" fill="#60a5fa"/>
  <rect x="55" y="96" width="90" height="12" rx="2" fill="#1a1a1a"/>
  <rect x="55" y="120" width="90" height="40" rx="4" fill="#1a1a1a"/>
  <rect x="65" y="130" width="30" height="20" rx="2" fill="#333"/>
  <rect x="105" y="130" width="30" height="20" rx="2" fill="#333"/>
  <rect x="55" y="172" width="90" height="8" rx="2" fill="#1a1a1a"/>
  <rect x="55" y="188" width="90" height="8" rx="2" fill="#1a1a1a"/>
  <rect x="55" y="204" width="90" height="8" rx="2" fill="#1a1a1a"/>
  <rect x="75" y="230" width="50" height="30" rx="4" fill="#1a1a1a"/>
  <circle cx="100" cy="245" r="8" fill="#333" stroke="#555" stroke-width="1"/>
</svg>
