<svg preserveAspectRatio="xMidYMid meet" width="147" height="39" overflow="visible" style="display: block;" viewBox="0 0 147 38.6904" fill="none" xmlns="http://www.w3.org/2000/svg">
<g id="accenture-6 1" clip-path="url(#clip0_0_15)">
<path id="Vector" d="M85.555 10.7987L94.0115 7.64999L85.555 4.41131V0.00311245L100.039 5.85072V9.44926L85.555 15.2969V10.7987Z" fill="white" fill-opacity="0.3"/>
<path id="Vector_2" d="M5.57772 38.6873C2.51897 38.6873 0 37.1579 0 33.7393V33.5594C0 29.4211 3.59853 27.9817 8.00673 27.9817H10.0759V27.172C10.0759 25.4627 9.35618 24.4731 7.55691 24.4731C5.93758 24.4731 5.12791 25.3728 5.03794 26.6322H0.53978C0.899633 22.8538 3.86842 21.0545 7.8268 21.0545C11.8752 21.0545 14.8439 22.7638 14.8439 26.9921V38.3275H10.2558V36.3483C9.35618 37.6078 7.8268 38.6873 5.57772 38.6873ZM10.0759 32.7497V31.1304H8.18666C5.84761 31.1304 4.67809 31.7601 4.67809 33.2895V33.4695C4.67809 34.639 5.3978 35.4486 7.01713 35.4486C8.63647 35.3587 10.0759 34.459 10.0759 32.7497V32.7497ZM25.5496 38.6873C20.8715 38.6873 17.4529 35.8085 17.4529 30.0508V29.781C17.4529 24.0233 21.0514 20.9646 25.5496 20.9646C29.418 20.9646 32.5667 22.9437 32.9266 27.3519H28.4284C28.1585 25.7326 27.2589 24.653 25.6395 24.653C23.6603 24.653 22.2209 26.2724 22.2209 29.601V30.1408C22.2209 33.5594 23.4804 35.0888 25.6395 35.0888C27.2589 35.0888 28.4284 33.9193 28.6983 32.03H33.0165C32.7466 35.9884 30.1377 38.6873 25.5496 38.6873V38.6873ZM43.1824 38.6873C38.5043 38.6873 35.0857 35.8085 35.0857 30.0508V29.781C35.0857 24.0233 38.6842 20.9646 43.1824 20.9646C47.0508 20.9646 50.1995 22.9437 50.5594 27.3519H46.0612C45.7913 25.7326 44.8917 24.653 43.2723 24.653C41.2931 24.653 39.8537 26.2724 39.8537 29.601V30.1408C39.8537 33.5594 41.1132 35.0888 43.2723 35.0888C44.8917 35.0888 46.0612 33.9193 46.3311 32.03H50.6493C50.3794 35.9884 47.7705 38.6873 43.1824 38.6873ZM60.9051 38.6873C56.0471 38.6873 52.7185 35.8085 52.7185 30.1408V29.781C52.7185 24.1133 56.227 20.9646 60.8152 20.9646C65.0434 20.9646 68.552 23.3036 68.552 28.9713V31.0404H57.4865C57.6665 34.0992 59.0159 35.2687 60.9951 35.2687C62.7944 35.2687 63.784 34.2791 64.1438 33.1096H68.552C68.0122 36.2583 65.3133 38.6873 60.9051 38.6873V38.6873ZM57.5765 27.8917H63.8739C63.784 25.3728 62.6144 24.2932 60.7252 24.2932C59.2858 24.3832 57.9363 25.1928 57.5765 27.8917ZM71.4308 21.4144H76.1989V23.9333C77.0086 22.314 78.7179 21.0545 81.3268 21.0545C84.3855 21.0545 86.4547 22.9437 86.4547 26.9921V38.3275H81.6866V27.7118C81.6866 25.7326 80.877 24.833 79.1677 24.833C77.5483 24.833 76.1989 25.8226 76.1989 27.9817V38.3275H71.4308V21.4144ZM95.1811 16.2865V21.4144H98.4198V24.9229H95.1811V32.9297C95.1811 34.1892 95.7209 34.8189 96.8904 34.8189C97.6101 34.8189 98.06 34.7289 98.5098 34.549V38.2375C97.97 38.4174 96.9804 38.5974 95.8109 38.5974C92.1224 38.5974 90.4131 36.8881 90.4131 33.4695V24.9229H88.4339V21.4144H90.4131V18.2657L95.1811 16.2865ZM116.233 38.3275H111.554V35.8085C110.745 37.4278 109.125 38.6873 106.606 38.6873C103.548 38.6873 101.299 36.7981 101.299 32.8397V21.4144H106.067V32.21C106.067 34.1892 106.876 35.0888 108.496 35.0888C110.115 35.0888 111.464 34.0092 111.464 31.9401V21.4144H116.233V38.3275ZM119.741 21.4144H124.509V24.5631C125.499 22.314 127.118 21.2344 129.637 21.2344V25.9125C126.398 25.9125 124.509 26.9021 124.509 29.691V38.4174H119.741V21.4144ZM139.263 38.6873C134.405 38.6873 131.076 35.8085 131.076 30.1408V29.781C131.076 24.1133 134.585 20.9646 139.173 20.9646C143.401 20.9646 146.91 23.3036 146.91 28.9713V31.0404H135.934C136.114 34.0992 137.464 35.2687 139.443 35.2687C141.242 35.2687 142.232 34.2791 142.592 33.1096H147C146.28 36.2583 143.671 38.6873 139.263 38.6873V38.6873ZM135.845 27.8917H142.232C142.142 25.3728 140.972 24.2932 139.083 24.2932C137.644 24.3832 136.294 25.1928 135.845 27.8917Z" fill="white" fill-opacity="0.3"/>
</g>
<defs>
<clipPath id="clip0_0_15">
<rect width="147" height="38.6904" fill="white"/>
</clipPath>
</defs>
</svg>
