<svg preserveAspectRatio="xMidYMid meet" width="146" height="31" overflow="visible" style="display: block;" viewBox="0 0 146 30.952" fill="none" xmlns="http://www.w3.org/2000/svg">
<g id="cognizants-logo 1" clip-path="url(#clip0_0_13)">
<path id="Vector" d="M83.7144 18.9973L92.387 10.5513H83.8452V6.57392H98.455V10.6161L89.7813 19.0297H98.62V23.007H83.7173L83.7144 18.9973ZM77.5521 1.16891H82.0705V5.25748H77.5521V1.16891ZM77.4913 6.62328H82.0094V23.0568H77.4913V6.62328ZM22.8444 14.7905C22.8628 10.0934 26.6951 6.29878 31.4083 6.31056C36.1216 6.32272 39.9343 10.1369 39.928 14.8339C39.9221 19.531 36.0999 23.3356 31.3862 23.3356C30.2621 23.3375 29.1486 23.1176 28.1096 22.6884C27.0706 22.2593 26.1265 21.6293 25.3315 20.8346C24.538 20.0415 23.9097 19.099 23.4829 18.0615C23.056 17.0241 22.8392 15.9123 22.8448 14.7905H22.8444ZM35.5411 14.7905C35.5411 12.457 33.6942 10.5152 31.3862 10.5152C29.0451 10.5152 27.2634 12.4548 27.2634 14.7905C27.2634 17.1261 29.0451 19.0658 31.3866 19.0658C33.6942 19.0625 35.5422 17.1239 35.5422 14.7905H35.5411ZM60.3175 6.57392H64.8038V8.41452C65.8584 7.06455 67.4739 6.245 69.3536 6.245C73.2462 6.245 75.5877 8.74308 75.5877 12.9823V23.007H71.003V13.5742C71.003 11.3723 69.9801 10.0864 67.9697 10.0864C66.2547 10.0864 64.8366 11.2688 64.8366 14.0243V22.9971H60.3208L60.3175 6.57392ZM98.8775 14.7905C98.8775 8.97255 103.168 6.23984 106.893 6.23984C109.038 6.23984 110.719 7.02735 111.807 8.17952V6.57356H116.322V23.007H111.807V21.1664C110.719 22.4483 108.97 23.336 106.827 23.336C103.331 23.336 98.8775 20.5793 98.8775 14.7905V14.7905ZM111.936 14.7581C111.936 12.3255 110.156 10.3531 107.715 10.3531C105.208 10.3531 103.296 12.2265 103.296 14.7581C103.296 17.2893 105.208 19.1943 107.715 19.1943C110.158 19.1943 111.938 17.1891 111.938 14.7581H111.936ZM118.149 6.57356H122.634V8.41452C123.69 7.06455 125.305 6.245 127.185 6.245C131.077 6.245 133.418 8.74308 133.418 12.9823V23.007H128.833V13.5742C128.833 11.3723 127.817 10.0864 125.8 10.0864C124.085 10.0864 122.667 11.2688 122.667 14.0243V22.9971H118.151L118.149 6.57356ZM83.7144 23.007V18.9973L92.3873 10.5513H83.8455V6.57392H98.4553V10.6161L89.7817 19.0297L83.7144 23.007ZM18.0247 14.6476L17.9628 14.7783C16.7153 17.3987 14.4212 18.9015 11.6686 18.9015C7.67767 18.9015 4.55599 15.7581 4.55599 11.7462C4.55599 7.6318 7.65631 4.52964 11.7681 4.52964C14.4323 4.52964 16.457 5.77279 17.7856 8.22667L17.8567 8.35706L21.8779 5.79526L21.8101 5.68291C19.722 2.13764 15.9672 0.0215309 11.7685 0.0215309C5.05915 0.0211626 0 5.06263 0 11.748C0 18.5439 4.94938 23.4759 11.7685 23.4759C16.1635 23.4759 20.0461 21.0449 22.1549 16.9729L22.2182 16.8502L18.0247 14.6476ZM41.0658 14.7905C41.0658 8.97255 45.3559 6.23984 49.0816 6.23984C51.2265 6.23984 52.9065 7.12754 53.9949 8.34269V6.57392H58.5108V22.5503C58.5108 27.1847 55.5751 30.9315 50.0017 30.9315C45.8134 30.9315 42.7469 28.7609 41.4216 26.1983L45.4126 23.9636C46.2694 25.6727 47.7832 26.7571 49.9962 26.7571C52.4368 26.7571 53.9857 24.8513 53.9857 22.7146V21.1664C52.8976 22.4483 51.1499 23.336 49.0072 23.336C45.5176 23.336 41.0658 20.5793 41.0658 14.7905V14.7905ZM54.1246 14.7581C54.1246 12.3255 52.3444 10.3531 49.9034 10.3531C47.3972 10.3531 45.4848 12.2265 45.4848 14.7581C45.4848 17.2893 47.3972 19.1943 49.9034 19.1943C52.3444 19.1943 54.1246 17.1891 54.1246 14.7581ZM144.545 10.6165V6.57392H141.445V1.15307H136.929V6.57392H134.123V10.6161H136.923V15.8749C136.923 21.2324 138.638 23.0067 143.882 23.0067H144.541V18.8006C141.771 18.8006 141.441 18.4054 141.441 15.8428V10.6161L144.545 10.6165ZM145.503 3.11411C145.396 3.22152 145.269 3.30673 145.129 3.36488C144.989 3.42303 144.839 3.45296 144.687 3.45296C144.535 3.45296 144.385 3.42303 144.245 3.36488C144.105 3.30673 143.978 3.22152 143.871 3.11411C143.762 3.00841 143.676 2.88156 143.617 2.74133C143.559 2.6011 143.53 2.45045 143.532 2.29861C143.533 2.04538 143.617 1.79948 143.772 1.59912C143.927 1.39876 144.144 1.25517 144.388 1.19064C144.633 1.12557 144.893 1.14293 145.127 1.24006C145.361 1.33719 145.557 1.50867 145.684 1.72805C145.81 1.94712 145.861 2.2019 145.827 2.45263C145.794 2.70337 145.678 2.93596 145.499 3.11411H145.503ZM143.986 1.60097C143.892 1.69169 143.819 1.8006 143.769 1.92097C143.719 2.04134 143.695 2.17062 143.697 2.30082C143.693 2.56455 143.796 2.8187 143.984 3.00508C144.076 3.09757 144.185 3.17097 144.306 3.22105C144.426 3.27113 144.555 3.29691 144.686 3.29691C144.816 3.29691 144.946 3.27113 145.066 3.22105C145.187 3.17097 145.296 3.09757 145.388 3.00508C145.482 2.91349 145.555 2.8038 145.605 2.68272C145.655 2.56163 145.679 2.43169 145.677 2.30082C145.679 2.1043 145.621 1.91183 145.513 1.74814C145.404 1.58445 145.249 1.45701 145.067 1.38218C144.885 1.3071 144.685 1.28782 144.492 1.32678C144.299 1.36574 144.122 1.46119 143.984 1.60097H143.986ZM144.664 1.66506C144.78 1.6588 144.897 1.67427 145.009 1.71C145.138 1.76157 145.218 1.89122 145.205 2.02935C145.208 2.07818 145.199 2.12703 145.177 2.17095C145.156 2.21487 145.123 2.2523 145.082 2.27945C145.026 2.31176 144.964 2.33243 144.899 2.34023C144.986 2.3487 145.065 2.39364 145.116 2.46399C145.159 2.52001 145.183 2.58804 145.185 2.65847V2.84522C145.185 2.86732 145.188 2.88942 145.195 2.91042L145.203 2.92626H144.994C144.993 2.9221 144.993 2.91789 144.994 2.91373V2.75977C145.001 2.70529 144.994 2.6498 144.973 2.59899C144.952 2.54818 144.918 2.50388 144.874 2.47062C144.796 2.43777 144.711 2.42389 144.626 2.4301H144.45V2.92626H144.224V1.66506H144.664ZM144.904 1.86286C144.819 1.82603 144.726 1.81019 144.634 1.81682H144.443V2.27356H144.645C144.717 2.27724 144.789 2.26767 144.857 2.24557C144.893 2.22969 144.923 2.20493 144.946 2.1737C144.969 2.14247 144.984 2.10583 144.989 2.06732C144.993 2.02882 144.988 1.98976 144.973 1.95393C144.958 1.91811 144.934 1.88674 144.904 1.86286V1.86286Z" fill="white" fill-opacity="0.3"/>
</g>
<defs>
<clipPath id="clip0_0_13">
<rect width="146" height="30.952" fill="white"/>
</clipPath>
</defs>
</svg>
