<svg preserveAspectRatio="xMidYMid meet" width="225" height="39" overflow="visible" style="display: block;" viewBox="0 0 225 38.97" fill="none" xmlns="http://www.w3.org/2000/svg">
<g id="hdfc-bank-logo 1" clip-path="url(#clip0_0_4)">
<g id="Vector">
</g>
<path id="Vector_2" d="M49.4253 28.3557V10.6138H55.2622V16.6019H60.7316V10.6138H66.5771V28.3557H60.7316V21.4719H55.2622V28.3557H49.4253ZM75.814 15.0222H77.3271C78.4163 15.0222 79.2132 15.135 79.7225 15.3615C80.0994 15.526 80.4058 15.7721 80.6746 16.1396C80.9199 16.5024 81.1181 16.96 81.2639 17.5352C81.3963 18.1056 81.4668 18.709 81.4668 19.3452C81.4668 20.3827 81.3258 21.2501 81.0186 21.953C80.7216 22.6551 80.293 23.1597 79.7413 23.4708C79.1897 23.7874 78.3693 23.9378 77.2848 23.9378L75.814 23.9472V15.0222ZM78.0676 28.3557C79.4444 28.3557 80.5853 28.2428 81.5185 27.9929C82.4573 27.7523 83.2205 27.4318 83.805 27.0494C84.3998 26.6576 84.9365 26.1303 85.4317 25.4744C85.9223 24.7959 86.3517 23.9425 86.6855 22.8964C87.0303 21.8543 87.1948 20.6797 87.1948 19.3507C87.1948 17.3988 86.8226 15.7486 86.0688 14.3718C85.3048 13.0233 84.2673 12.0469 82.9423 11.4726C81.6227 10.8966 80.0477 10.6138 78.2181 10.6138H70.104V28.3557H78.0676ZM89.8692 28.3557V10.6138H103.711V14.9893H95.6301V17.8321H102.095V22.0893H95.6301V28.3557H89.8692ZM123.258 17.3988H117.748C117.643 16.5165 117.323 15.8191 116.79 15.3192C116.252 14.8287 115.579 14.5881 114.749 14.5881C113.716 14.5881 112.877 14.9893 112.231 15.7815C111.581 16.5831 111.255 17.8792 111.255 19.6618C111.255 20.9061 111.401 21.8402 111.67 22.4764C111.948 23.1315 112.339 23.6032 112.825 23.919C113.325 24.2348 113.933 24.3813 114.682 24.3813C115.579 24.3813 116.295 24.1541 116.818 23.6361C117.356 23.1503 117.667 22.4247 117.771 21.4531H123.382C123.258 22.5564 123.037 23.4802 122.716 24.2348C122.411 24.9847 121.863 25.7299 121.123 26.479C120.364 27.2445 119.451 27.8408 118.445 28.2287C117.412 28.6385 116.22 28.8321 114.852 28.8321C113.504 28.8321 112.245 28.6385 111.109 28.2428C109.959 27.8369 108.987 27.2618 108.214 26.5401C107.426 25.791 106.813 24.9518 106.375 24.0036C105.743 22.67 105.446 21.2031 105.446 19.567C105.446 18.1996 105.668 16.9028 106.116 15.7157C106.563 14.5364 107.182 13.5326 107.968 12.7216C108.761 11.9145 109.623 11.3111 110.586 10.906C111.802 10.3873 113.141 10.1381 114.626 10.1381C115.918 10.1381 117.115 10.3262 118.247 10.7078C119.373 11.0902 120.298 11.6465 121.019 12.387C121.745 13.1178 122.317 13.9863 122.702 14.9415C122.985 15.6162 123.164 16.4319 123.258 17.3988V17.3988ZM141.953 14.6077C142.778 14.6077 143.311 14.6453 143.575 14.7205C143.9 14.813 144.188 15.0041 144.4 15.2675C144.607 15.5315 144.716 15.8379 144.716 16.1921C144.716 16.6442 144.537 17.0164 144.193 17.2993C143.824 17.5971 143.198 17.7334 142.296 17.7334H140.1V14.6069L141.953 14.6077ZM143.419 28.3557C144.801 28.3557 145.772 28.2899 146.342 28.1676C146.938 28.0221 147.518 27.8165 148.073 27.5541C148.648 27.2524 149.092 26.9695 149.383 26.6584C149.836 26.2384 150.171 25.7299 150.416 25.1163C150.661 24.4989 150.784 23.8015 150.784 23.0516C150.784 21.9812 150.519 21.0997 149.983 20.3827C149.445 19.6618 148.723 19.1854 147.814 18.926C149.355 17.9544 150.124 16.7006 150.124 15.1726C150.124 13.5937 149.445 12.387 148.101 11.5666C147.064 10.9342 145.446 10.6138 143.254 10.6138H134.452V28.3557H143.419ZM142.481 20.9249C143.636 20.9249 144.385 21.066 144.763 21.3637C145.112 21.6513 145.301 22.047 145.301 22.5799C145.301 23.1174 145.112 23.5421 144.73 23.8391C144.367 24.1549 143.608 24.2865 142.481 24.2865H140.1V20.9249H142.481ZM163.604 22.3918H159.893L161.722 15.9366L163.604 22.3918ZM158.148 28.3557L158.822 26.0269H164.631L165.31 28.3557H171.114L164.749 10.6138H158.822L152.452 28.3557H158.148ZM173.565 28.3557V10.6138H179.002L185.136 20.1139V10.6138H190.727V28.3557H185.173L179.171 19.0914V28.3557H173.565ZM194.617 28.3557V10.6138H200.271V16.4648L205.547 10.6138H212.401L205.9 17.2946L213.076 28.3557H206.089L201.821 21.2877L200.27 22.8204V28.3557H194.617Z" fill="white" fill-opacity="0.3"/>
<path id="Vector_3" d="M-0.000202429 0.736674H37.4967V38.2335H-0.000202429V0.736674Z" fill="white" fill-opacity="0.3"/>
<g id="Group">
<g id="Vector_4">
</g>
<g id="Vector_5">
</g>
<g id="Vector_6">
</g>
</g>
<path id="Vector_7" d="M13.1257 13.8617H24.3748V25.1116H13.1257V13.8617Z" fill="var(--fill-0, #06002A)"/>
</g>
<defs>
<clipPath id="clip0_0_4">
<rect width="225" height="38.97" fill="white"/>
</clipPath>
</defs>
</svg>
